# xmcd CD database file
#
# Track frame offsets:
#	150
#	32203
#	49427
#	77565
#	102876
#	121965
#	142874
#	169497
#	193885
#
# Disc length: 2950 seconds
#
# Revision: 0
# Processed by: cddbd v1.5.1PL0 Copyright (c) Steve Scherf et al.
# Submitted via: CDex 1.51
#
DISCID=7c0b8409
DTITLE=Timo Kämäräinen - Unea
DYEAR=2005
DGENRE=Jazz
TTITLE0=Heräämisiä
TTITLE1=Kukkatyttö
TTITLE2=Avaruuskahvila
TTITLE3=Rajatila
TTITLE4=Poissaoleville
TTITLE5=Kaupunkiralli
TTITLE6=Yhessä
TTITLE7=Irrota
TTITLE8=Supernova
EXTD=YEAR: 2005
EXTT0=
EXTT1=
EXTT2=
EXTT3=
EXTT4=
EXTT5=
EXTT6=
EXTT7=
EXTT8=
PLAYORDER=
